<?xml version="1.0" standalone="no"?>
<!DOCTYPE svg PUBLIC "-//W3C//DTD SVG 20010904//EN"
 "http://www.w3.org/TR/2001/REC-SVG-20010904/DTD/svg10.dtd">
<svg version="1.0" xmlns="http://www.w3.org/2000/svg"
 width="626.000000pt" height="626.000000pt" viewBox="0 0 626.000000 626.000000"
 preserveAspectRatio="xMidYMid meet">

<g transform="translate(0.000000,626.000000) scale(0.100000,-0.100000)"
fill="#000000" stroke="none">
<path d="M2975 5768 c-605 -30 -1188 -288 -1634 -722 -290 -283 -500 -614
-632 -996 -50 -145 -83 -273 -110 -431 -26 -157 -37 -483 -20 -653 87 -889
625 -1664 1426 -2056 274 -133 551 -213 855 -245 773 -83 1538 189 2085 739
421 424 676 965 736 1560 17 170 7 496 -20 655 -96 561 -348 1045 -747 1432
-522 506 -1196 755 -1939 717z m615 -1493 l0 -605 605 0 605 0 0 -460 0 -460
-605 0 -605 0 0 -605 0 -605 -460 0 -460 0 0 605 0 605 -605 0 -605 0 0 460 0
460 605 0 605 0 0 605 0 605 460 0 460 0 0 -605z"/>
</g>
</svg>
